<svg width="27" height="27" viewBox="0 0 27 27" fill="none" xmlns="http://www.w3.org/2000/svg">
<circle cx="13.5" cy="13.5" r="13.5" fill="#018BFF"/>
<path d="M19.5 10.7368H15.291L16.1332 8.07868C16.2847 7.59868 16.2082 7.06658 15.927 6.65605C15.6457 6.24553 15.1897 6 14.709 6H13.5C13.2772 6 13.0665 6.10421 12.9232 6.28421L9.39825 10.7368H7.5C6.67275 10.7368 6 11.445 6 12.3158V19.4211C6 20.2918 6.67275 21 7.5 21H17.4802C17.7854 20.9989 18.0831 20.9004 18.3339 20.7174C18.5847 20.5345 18.7769 20.2757 18.885 19.9753L20.9527 14.1718C20.9841 14.0832 21.0001 13.9893 21 13.8947V12.3158C21 11.445 20.3272 10.7368 19.5 10.7368ZM7.5 12.3158H9V19.4211H7.5V12.3158ZM19.5 13.7518L17.4802 19.4211H10.5V11.8121L13.851 7.57895H14.7105L13.539 11.2761C13.501 11.3947 13.4904 11.5212 13.5081 11.6451C13.5258 11.7689 13.5712 11.8865 13.6407 11.9882C13.7103 12.0898 13.8018 12.1726 13.9077 12.2295C14.0137 12.2865 14.131 12.3161 14.25 12.3158H19.5V13.7518Z" fill="white"/>
</svg>
