<svg width="21" height="21" viewBox="0 0 21 21" fill="none" xmlns="http://www.w3.org/2000/svg">
<path d="M3.86842 13.65C4.87421 13.65 5.78384 13.2741 6.47353 12.6735L13.3925 16.4293C13.3105 16.7217 13.2671 17.0225 13.2632 17.325C13.2632 19.3515 14.9984 21 17.1316 21C19.2647 21 21 19.3515 21 17.325C21 15.2985 19.2647 13.65 17.1316 13.65C16.1258 13.65 15.2162 14.0259 14.5265 14.6265L7.60753 10.8706C7.67716 10.6113 7.72137 10.3435 7.72689 10.0642L14.5254 6.3735C15.2162 6.9741 16.1258 7.35 17.1316 7.35C19.2647 7.35 21 5.7015 21 3.675C21 1.6485 19.2647 0 17.1316 0C14.9984 0 13.2632 1.6485 13.2632 3.675C13.2632 3.9858 13.3162 4.2819 13.3925 4.57065L7.11016 7.9821C6.76061 7.46689 6.28082 7.04305 5.71457 6.74922C5.14832 6.4554 4.51363 6.30096 3.86842 6.3C1.73526 6.3 0 7.9485 0 9.975C0 12.0015 1.73526 13.65 3.86842 13.65ZM17.1316 15.75C18.0456 15.75 18.7895 16.4566 18.7895 17.325C18.7895 18.1933 18.0456 18.9 17.1316 18.9C16.2175 18.9 15.4737 18.1933 15.4737 17.325C15.4737 16.4566 16.2175 15.75 17.1316 15.75ZM17.1316 2.1C18.0456 2.1 18.7895 2.80665 18.7895 3.675C18.7895 4.54335 18.0456 5.25 17.1316 5.25C16.2175 5.25 15.4737 4.54335 15.4737 3.675C15.4737 2.80665 16.2175 2.1 17.1316 2.1ZM3.86842 8.4C4.78247 8.4 5.52632 9.10665 5.52632 9.975C5.52632 10.8433 4.78247 11.55 3.86842 11.55C2.95437 11.55 2.21053 10.8433 2.21053 9.975C2.21053 9.10665 2.95437 8.4 3.86842 8.4Z" fill="#424549"/>
</svg>
