<svg width="45" height="45" viewBox="0 0 45 45" fill="none" xmlns="http://www.w3.org/2000/svg">
<circle cx="22.5" cy="22.5" r="22.5" fill="#F5F5F5"/>
<path d="M22.001 20.8C21.712 20.8 21.4258 20.8569 21.1588 20.9675C20.8917 21.0781 20.6491 21.2403 20.4447 21.4446C20.2403 21.649 20.0782 21.8917 19.9676 22.1587C19.857 22.4257 19.8 22.7119 19.8 23.001C19.8 23.29 19.857 23.5762 19.9676 23.8433C20.0782 24.1103 20.2403 24.3529 20.4447 24.5573C20.6491 24.7617 20.8917 24.9238 21.1588 25.0344C21.4258 25.1451 21.712 25.202 22.001 25.202C22.5848 25.2019 23.1446 24.9698 23.5572 24.557C23.9699 24.1441 24.2017 23.5842 24.2015 23.0005C24.2014 22.4167 23.9694 21.857 23.5565 21.4443C23.1437 21.0316 22.5838 20.7999 22 20.8H22.001ZM15.001 20.8C14.712 20.8 14.4258 20.8569 14.1588 20.9675C13.8917 21.0781 13.6491 21.2403 13.4447 21.4446C13.2403 21.649 13.0782 21.8917 12.9676 22.1587C12.857 22.4257 12.8 22.7119 12.8 23.001C12.8 23.29 12.857 23.5762 12.9676 23.8433C13.0782 24.1103 13.2403 24.3529 13.4447 24.5573C13.6491 24.7617 13.8917 24.9238 14.1588 25.0344C14.4258 25.1451 14.712 25.202 15.001 25.202C15.5848 25.2019 16.1446 24.9698 16.5572 24.557C16.9699 24.1441 17.2017 23.5842 17.2015 23.0005C17.2014 22.4167 16.9694 21.857 16.5565 21.4443C16.1437 21.0316 15.5838 20.7999 15 20.8H15.001ZM29.001 20.8C28.712 20.8 28.4258 20.8569 28.1588 20.9675C27.8917 21.0781 27.6491 21.2403 27.4447 21.4446C27.2403 21.649 27.0782 21.8917 26.9676 22.1587C26.857 22.4257 26.8 22.7119 26.8 23.001C26.8 23.29 26.857 23.5762 26.9676 23.8433C27.0782 24.1103 27.2403 24.3529 27.4447 24.5573C27.6491 24.7617 27.8917 24.9238 28.1588 25.0344C28.4258 25.1451 28.712 25.202 29.001 25.202C29.5848 25.2019 30.1446 24.9698 30.5572 24.557C30.9699 24.1441 31.2017 23.5842 31.2015 23.0005C31.2014 22.4167 30.9694 21.857 30.5565 21.4443C30.1437 21.0316 29.5838 20.7999 29 20.8H29.001Z" fill="#424549"/>
</svg>
