<svg width="20" height="20" viewBox="0 0 20 20" fill="none" xmlns="http://www.w3.org/2000/svg">
<path d="M1 4.6C1 3.64522 1.37928 2.72955 2.05442 2.05442C2.72955 1.37928 3.64522 1 4.6 1H15.4C16.3548 1 17.2705 1.37928 17.9456 2.05442C18.6207 2.72955 19 3.64522 19 4.6V15.4C19 16.3548 18.6207 17.2705 17.9456 17.9456C17.2705 18.6207 16.3548 19 15.4 19H4.6C3.64522 19 2.72955 18.6207 2.05442 17.9456C1.37928 17.2705 1 16.3548 1 15.4V4.6Z" stroke="#18D97B" stroke-width="2" stroke-linecap="round" stroke-linejoin="round"/>
<path d="M6.84998 9.09998C8.09262 9.09998 9.09998 8.09262 9.09998 6.84998C9.09998 5.60733 8.09262 4.59998 6.84998 4.59998C5.60733 4.59998 4.59998 5.60733 4.59998 6.84998C4.59998 8.09262 5.60733 9.09998 6.84998 9.09998Z" stroke="#18D97B" stroke-width="2" stroke-linecap="round" stroke-linejoin="round"/>
<path d="M12.2734 10.5589L4.59998 19H15.5197C16.4427 19 17.3279 18.6333 17.9806 17.9806C18.6333 17.328 19 16.4427 19 15.5197V15.4C19 14.9806 18.8425 14.8195 18.559 14.509L14.932 10.5535C14.7629 10.3691 14.5573 10.222 14.3282 10.1215C14.0991 10.021 13.8516 9.96934 13.6015 9.96985C13.3513 9.97036 13.104 10.023 12.8754 10.1244C12.6467 10.2258 12.4417 10.3738 12.2734 10.5589V10.5589Z" stroke="#18D97B" stroke-width="2" stroke-linecap="round" stroke-linejoin="round"/>
</svg>
