<svg width="24" height="20" viewBox="0 0 24 20" fill="none" xmlns="http://www.w3.org/2000/svg">
<path d="M11.6667 6.5C9.13733 6.5 7 8.48467 7 10.8333C7 13.182 9.13733 15.1667 11.6667 15.1667C14.196 15.1667 16.3333 13.182 16.3333 10.8333C16.3333 8.48467 14.196 6.5 11.6667 6.5ZM11.6667 13C10.4242 13 9.33333 11.9871 9.33333 10.8333C9.33333 9.67958 10.4242 8.66667 11.6667 8.66667C12.9092 8.66667 14 9.67958 14 10.8333C14 11.9871 12.9092 13 11.6667 13Z" fill="#FB9F5C"/>
<path d="M21 3.25H17.983L14.8248 0.317418C14.7167 0.216622 14.5881 0.136685 14.4466 0.0822092C14.305 0.0277335 14.1532 -0.000205236 14 1.13498e-06H9.33333C9.1801 -0.000205236 9.02833 0.0277335 8.88678 0.0822092C8.74522 0.136685 8.61666 0.216622 8.5085 0.317418L5.35033 3.25H2.33333C1.0465 3.25 0 4.22175 0 5.41667V17.3333C0 18.5283 1.0465 19.5 2.33333 19.5H21C22.2868 19.5 23.3333 18.5283 23.3333 17.3333V5.41667C23.3333 4.22175 22.2868 3.25 21 3.25ZM2.33333 17.3333V5.41667H5.83333C6.14367 5.41667 6.44 5.30292 6.65817 5.09925L9.81633 2.16667H13.517L16.6752 5.09925C16.7833 5.20005 16.9119 5.27998 17.0534 5.33446C17.195 5.38894 17.3468 5.41687 17.5 5.41667H21L21.0023 17.3333H2.33333Z" fill="#FB9F5C"/>
</svg>
