<svg width="26" height="21" viewBox="0 0 26 21" fill="none" xmlns="http://www.w3.org/2000/svg">
<path d="M24.5562 9.09129C25.1479 9.93271 25.1479 11.0686 24.5562 11.9087C22.6924 14.5538 18.2208 20 13.0002 20C7.77957 20 3.30796 14.5538 1.44417 11.9087C1.15628 11.5058 1 11.0102 1 10.5C1 9.98983 1.15628 9.49418 1.44417 9.09129C3.30796 6.44621 7.77957 1 13.0002 1C18.2208 1 22.6924 6.44621 24.5562 9.09129Z" stroke="#A3ABB1" stroke-width="2" stroke-linecap="round" stroke-linejoin="round"/>
<path d="M13.0002 14.8571C15.0685 14.8571 16.7453 13.1302 16.7453 11C16.7453 8.86972 15.0685 7.14282 13.0002 7.14282C10.9318 7.14282 9.25513 8.86972 9.25513 11C9.25513 13.1302 10.9318 14.8571 13.0002 14.8571Z" stroke="#A3ABB1" stroke-width="2" stroke-linecap="round" stroke-linejoin="round"/>
</svg>
