<svg width="23" height="26" viewBox="0 0 23 26" fill="none" xmlns="http://www.w3.org/2000/svg">
<path d="M20.125 8.06897H2.875C2.11274 8.06968 1.38191 8.35328 0.842908 8.85754C0.303906 9.36179 0.000761123 10.0455 0 10.7586V16.1379C0.000507415 16.6134 0.202604 17.0692 0.561939 17.4053C0.921274 17.7415 1.40849 17.9306 1.91667 17.931V24.2069C1.91717 24.6823 2.11927 25.1381 2.47861 25.4743C2.83794 25.8105 3.32516 25.9995 3.83333 26H7.66667C8.17484 25.9995 8.66206 25.8105 9.02139 25.4743C9.38073 25.1381 9.58283 24.6823 9.58333 24.2069V13.4483H7.66667V24.2069H3.83333V16.1379H1.91667V10.7586C1.91667 10.5208 2.01763 10.2928 2.19736 10.1247C2.37708 9.95653 2.62083 9.86207 2.875 9.86207H20.125C20.3792 9.86207 20.6229 9.95653 20.8026 10.1247C20.9824 10.2928 21.0833 10.5208 21.0833 10.7586V16.1379H19.1667V24.2069H15.3333V13.4483H13.4167V24.2069C13.4172 24.6823 13.6193 25.1381 13.9786 25.4743C14.3379 25.8105 14.8252 25.9995 15.3333 26H19.1667C19.6748 25.9995 20.1621 25.8105 20.5214 25.4743C20.8807 25.1381 21.0828 24.6823 21.0833 24.2069V17.931C21.5915 17.9306 22.0787 17.7415 22.4381 17.4053C22.7974 17.0692 22.9995 16.6134 23 16.1379V10.7586C22.9992 10.0455 22.6961 9.36179 22.1571 8.85754C21.6181 8.35328 20.8873 8.06968 20.125 8.06897V8.06897Z" fill="#A3ABB1"/>
<path d="M5.74996 7.17242C4.9918 7.17242 4.25066 6.96209 3.62027 6.56803C2.98989 6.17397 2.49856 5.61388 2.20842 4.95859C1.91829 4.3033 1.84237 3.58223 1.99028 2.88657C2.13819 2.19092 2.50328 1.55192 3.03938 1.05038C3.57549 0.548837 4.25852 0.207284 5.00211 0.0689096C5.74571 -0.069465 6.51646 0.00155384 7.21691 0.272985C7.91736 0.544417 8.51605 1.00407 8.93726 1.59382C9.35847 2.18357 9.58329 2.87692 9.58329 3.58621C9.58228 4.53704 9.17809 5.44865 8.45942 6.12099C7.74075 6.79333 6.76631 7.17147 5.74996 7.17242ZM5.74996 1.79311C5.37088 1.79311 5.00031 1.89827 4.68512 2.0953C4.36992 2.29233 4.12426 2.57237 3.97919 2.90002C3.83412 3.22766 3.79617 3.5882 3.87012 3.93603C3.94408 4.28385 4.12662 4.60335 4.39467 4.85412C4.66272 5.10489 5.00424 5.27567 5.37604 5.34486C5.74783 5.41405 6.13321 5.37854 6.48344 5.24282C6.83366 5.1071 7.133 4.87728 7.34361 4.5824C7.55422 4.28753 7.66663 3.94085 7.66663 3.58621C7.66612 3.11079 7.46402 2.65499 7.10469 2.31882C6.74535 1.98265 6.25814 1.79358 5.74996 1.79311V1.79311Z" fill="#A3ABB1"/>
<path d="M17.25 7.17242C16.4918 7.17242 15.7507 6.96209 15.1203 6.56803C14.4899 6.17397 13.9986 5.61388 13.7084 4.95859C13.4183 4.3033 13.3424 3.58223 13.4903 2.88657C13.6382 2.19092 14.0033 1.55192 14.5394 1.05038C15.0755 0.548837 15.7585 0.207284 16.5021 0.0689096C17.2457 -0.069465 18.0165 0.00155384 18.7169 0.272985C19.4174 0.544417 20.016 1.00407 20.4373 1.59382C20.8585 2.18357 21.0833 2.87692 21.0833 3.58621C21.0823 4.53704 20.6781 5.44865 19.9594 6.12099C19.2407 6.79333 18.2663 7.17147 17.25 7.17242ZM17.25 1.79311C16.8709 1.79311 16.5003 1.89827 16.1851 2.0953C15.8699 2.29233 15.6243 2.57237 15.4792 2.90002C15.3341 3.22766 15.2962 3.5882 15.3701 3.93603C15.4441 4.28385 15.6266 4.60335 15.8947 4.85412C16.1627 5.10489 16.5042 5.27567 16.876 5.34486C17.2478 5.41405 17.6332 5.37854 17.9834 5.24282C18.3337 5.1071 18.633 4.87728 18.8436 4.5824C19.0542 4.28753 19.1666 3.94085 19.1666 3.58621C19.1661 3.11079 18.964 2.65499 18.6047 2.31882C18.2454 1.98265 17.7581 1.79358 17.25 1.79311V1.79311Z" fill="#A3ABB1"/>
</svg>
