<svg width="50" height="50" viewBox="0 0 50 50" fill="none" xmlns="http://www.w3.org/2000/svg">
<rect width="50" height="50" rx="3" fill="#F5F5F5"/>
<path d="M30.5 24.75C30.5 24.0207 30.8073 23.3212 31.3543 22.8055C31.9013 22.2897 32.6431 22 33.4167 22C34.1902 22 34.9321 22.2897 35.4791 22.8055C36.026 23.3212 36.3333 24.0207 36.3333 24.75C36.3333 25.4793 36.026 26.1788 35.4791 26.6945C34.9321 27.2103 34.1902 27.5 33.4167 27.5C32.6431 27.5 31.9013 27.2103 31.3543 26.6945C30.8073 26.1788 30.5 25.4793 30.5 24.75ZM21.75 24.75C21.75 24.0207 22.0573 23.3212 22.6043 22.8055C23.1513 22.2897 23.8931 22 24.6667 22C25.4402 22 26.1821 22.2897 26.7291 22.8055C27.276 23.3212 27.5833 24.0207 27.5833 24.75C27.5833 25.4793 27.276 26.1788 26.7291 26.6945C26.1821 27.2103 25.4402 27.5 24.6667 27.5C23.8931 27.5 23.1513 27.2103 22.6043 26.6945C22.0573 26.1788 21.75 25.4793 21.75 24.75ZM13 24.75C13 24.0207 13.3073 23.3212 13.8543 22.8055C14.4013 22.2897 15.1431 22 15.9167 22C16.6902 22 17.4321 22.2897 17.9791 22.8055C18.526 23.3212 18.8333 24.0207 18.8333 24.75C18.8333 25.4793 18.526 26.1788 17.9791 26.6945C17.4321 27.2103 16.6902 27.5 15.9167 27.5C15.1431 27.5 14.4013 27.2103 13.8543 26.6945C13.3073 26.1788 13 25.4793 13 24.75V24.75ZM15.9167 23.375C15.5299 23.375 15.159 23.5199 14.8855 23.7777C14.612 24.0356 14.4583 24.3853 14.4583 24.75C14.4583 25.1147 14.612 25.4644 14.8855 25.7223C15.159 25.9801 15.5299 26.125 15.9167 26.125C16.3034 26.125 16.6744 25.9801 16.9479 25.7223C17.2214 25.4644 17.375 25.1147 17.375 24.75C17.375 24.3853 17.2214 24.0356 16.9479 23.7777C16.6744 23.5199 16.3034 23.375 15.9167 23.375ZM24.6667 23.375C24.2799 23.375 23.909 23.5199 23.6355 23.7777C23.362 24.0356 23.2083 24.3853 23.2083 24.75C23.2083 25.1147 23.362 25.4644 23.6355 25.7223C23.909 25.9801 24.2799 26.125 24.6667 26.125C25.0534 26.125 25.4244 25.9801 25.6979 25.7223C25.9714 25.4644 26.125 25.1147 26.125 24.75C26.125 24.3853 25.9714 24.0356 25.6979 23.7777C25.4244 23.5199 25.0534 23.375 24.6667 23.375ZM33.4167 23.375C33.0299 23.375 32.659 23.5199 32.3855 23.7777C32.112 24.0356 31.9583 24.3853 31.9583 24.75C31.9583 25.1147 32.112 25.4644 32.3855 25.7223C32.659 25.9801 33.0299 26.125 33.4167 26.125C33.8034 26.125 34.1744 25.9801 34.4479 25.7223C34.7214 25.4644 34.875 25.1147 34.875 24.75C34.875 24.3853 34.7214 24.0356 34.4479 23.7777C34.1744 23.5199 33.8034 23.375 33.4167 23.375Z" fill="black"/>
</svg>
