<svg width="22" height="26" viewBox="0 0 22 26" fill="none" xmlns="http://www.w3.org/2000/svg">
<path d="M11 14.2C13.0711 14.2 14.75 12.5882 14.75 10.6C14.75 8.61177 13.0711 7 11 7C8.92893 7 7.25 8.61177 7.25 10.6C7.25 12.5882 8.92893 14.2 11 14.2Z" stroke="#A3ABB1" stroke-width="2" stroke-linecap="round" stroke-linejoin="round"/>
<path d="M11 1C8.34784 1 5.8043 2.01143 3.92893 3.81178C2.05357 5.61212 1 8.05392 1 10.6C1 12.8704 1.5025 14.356 2.875 16L11 25L19.125 16C20.4975 14.356 21 12.8704 21 10.6C21 8.05392 19.9464 5.61212 18.0711 3.81178C16.1957 2.01143 13.6522 1 11 1V1Z" stroke="#A3ABB1" stroke-width="2" stroke-linecap="round" stroke-linejoin="round"/>
</svg>
