<svg width="26" height="23" viewBox="0 0 26 23" fill="none" xmlns="http://www.w3.org/2000/svg">
<path d="M13 12.55C14.1573 12.55 15.2672 12.1075 16.0856 11.3198C16.9039 10.5322 17.3636 9.46391 17.3636 8.35C17.3636 7.23609 16.9039 6.1678 16.0856 5.38015C15.2672 4.5925 14.1573 4.15 13 4.15C11.8427 4.15 10.7328 4.5925 9.91444 5.38015C9.0961 6.1678 8.63636 7.23609 8.63636 8.35C8.63636 9.46391 9.0961 10.5322 9.91444 11.3198C10.7328 12.1075 11.8427 12.55 13 12.55ZM13 12.55C11.264 12.55 9.59918 13.2137 8.37167 14.3952C7.14415 15.5767 6.45455 17.1791 6.45455 18.85V22H19.5455V18.85C19.5455 17.1791 18.8558 15.5767 17.6283 14.3952C16.4008 13.2137 14.736 12.55 13 12.55ZM14.0909 4.15C14.5316 2.4028 16.2891 1 18.4545 1C20.824 1 22.7964 2.8795 22.8182 5.2C22.7964 7.5205 20.824 9.4 18.4545 9.4M18.4545 9.4H17.3636M18.4545 9.4C22.0415 9.4 25 12.2203 25 15.7V17.8M11.9091 4.15C11.4684 2.4028 9.71091 1 7.54545 1C5.176 1 3.20364 2.8795 3.18182 5.2C3.20364 7.5205 5.176 9.4 7.54545 9.4M7.54545 9.4H8.63636M7.54545 9.4C3.95855 9.4 1 12.2203 1 15.7V17.8" stroke="#A3ABB1" stroke-width="2"/>
</svg>
