<svg width="59" height="58" viewBox="0 0 59 58" fill="none" xmlns="http://www.w3.org/2000/svg">
<ellipse cx="29.5" cy="29" rx="29.5" ry="29" fill="#F5F5F5"/>
<g style="mix-blend-mode:darken">
<path fill-rule="evenodd" clip-rule="evenodd" d="M40.7432 33.1824C41.5731 31.5394 42.0045 29.7184 42 27.8724V27.249C41.6654 21.1498 36.8502 16.3346 30.8198 16.0019L30.126 16C28.2827 15.9952 26.4611 16.4267 24.8129 17.2592C20.7954 19.267 18.2538 23.3769 18.2521 27.8735C18.2477 29.5397 18.5996 31.1877 19.2818 32.7061L17.0663 39.3527C16.7406 40.3298 17.6702 41.2594 18.6473 40.9337L25.2939 38.7182C26.8123 39.4004 28.4606 39.7523 30.1293 39.7479C34.6231 39.7462 38.733 37.2046 40.7432 33.1824ZM24.9812 36.1874L20.2283 37.7717L21.8126 33.0188C21.918 32.7027 21.8927 32.3575 21.7425 32.0601C21.0875 30.7633 20.748 29.3301 20.7518 27.8773C20.7532 24.3245 22.7597 21.0799 25.9352 19.4929C27.2367 18.8355 28.6699 18.496 30.1227 18.4998L30.751 18.4998C35.4403 18.7604 39.2396 22.5597 39.5021 27.3179L39.5002 27.8773C39.504 29.3301 39.1645 30.7633 38.5095 32.0601C36.9201 35.2403 33.6755 37.2468 30.1255 37.2482C28.6699 37.252 27.2367 36.9125 25.9399 36.2575C25.6425 36.1073 25.2973 36.082 24.9812 36.1874Z" fill="#A3ABB1"/>
</g>
</svg>
