<svg width="27" height="32" viewBox="0 0 27 32" fill="none" xmlns="http://www.w3.org/2000/svg">
<path d="M13.5 31.6147L4.21917 22.599C2.38362 20.8159 1.13361 18.544 0.627187 16.0708C0.120769 13.5975 0.380697 11.0339 1.3741 8.70419C2.36751 6.37444 4.04977 4.38317 6.20816 2.98219C8.36655 1.58121 10.9041 0.833435 13.5 0.833435C16.0959 0.833435 18.6335 1.58121 20.7918 2.98219C22.9502 4.38317 24.6325 6.37444 25.6259 8.70419C26.6193 11.0339 26.8792 13.5975 26.3728 16.0708C25.8664 18.544 24.6164 20.8159 22.7808 22.599L13.5 31.6147ZM20.7188 20.5958C22.1463 19.2089 23.1185 17.4419 23.5123 15.5183C23.9061 13.5947 23.7038 11.6008 22.9312 9.78886C22.1585 7.97689 20.8501 6.42818 19.1713 5.33856C17.4926 4.24895 15.519 3.66737 13.5 3.66737C11.481 3.66737 9.5074 4.24895 7.82867 5.33856C6.14994 6.42818 4.84151 7.97689 4.06884 9.78886C3.29616 11.6008 3.09394 13.5947 3.48775 15.5183C3.88155 17.4419 4.8537 19.2089 6.28126 20.5958L13.5 27.6083L20.7188 20.5958ZM13.5 16.4167C12.7265 16.4167 11.9846 16.1181 11.4376 15.5868C10.8906 15.0554 10.5833 14.3348 10.5833 13.5833C10.5833 12.8319 10.8906 12.1112 11.4376 11.5799C11.9846 11.0485 12.7265 10.75 13.5 10.75C14.2736 10.75 15.0154 11.0485 15.5624 11.5799C16.1094 12.1112 16.4167 12.8319 16.4167 13.5833C16.4167 14.3348 16.1094 15.0554 15.5624 15.5868C15.0154 16.1181 14.2736 16.4167 13.5 16.4167Z" fill="black"/>
</svg>
