<svg width="30" height="24" viewBox="0 0 30 24" fill="none" xmlns="http://www.w3.org/2000/svg">
<path d="M27.2727 0H2.72727C1.36364 0 0 1.33333 0 2.66667V21.3333C0 22.8 1.22727 24 2.72727 24H27.2727C28.6364 24 30 22.6667 30 21.3333V2.66667C30 1.33333 28.6364 0 27.2727 0ZM27.2727 21.2267C27.2455 21.2667 27.1909 21.3067 27.1636 21.3333H2.72727V2.77333L2.83636 2.66667H27.15C27.1909 2.69333 27.2318 2.74667 27.2591 2.77333V21.2267H27.2727ZM13.6364 16.68L10.2273 12.6667L5.45455 18.6667H24.5455L18.4091 10.6667L13.6364 16.68Z" fill="black"/>
</svg>
