<svg width="59" height="58" viewBox="0 0 59 58" fill="none" xmlns="http://www.w3.org/2000/svg">
<ellipse cx="29.5" cy="29" rx="29.5" ry="29" fill="#C7E7FF"/>
<path fill-rule="evenodd" clip-rule="evenodd" d="M29 29C25.625 29 22.8889 26.3137 22.8889 23C22.8889 19.6863 25.625 17 29 17C32.3751 17 35.1111 19.6863 35.1111 23C35.1111 26.3137 32.3751 29 29 29ZM40 39.8V37.4C40 34.0863 37.264 31.4 33.8889 31.4H24.1111C20.736 31.4 18 34.0863 18 37.4V39.8C18 40.4627 18.5472 41 19.2222 41C19.8972 41 20.4444 40.4627 20.4444 39.8V37.4C20.4444 35.4118 22.0861 33.8 24.1111 33.8H33.8889C35.9139 33.8 37.5556 35.4118 37.5556 37.4V39.8C37.5556 40.4627 38.1028 41 38.7778 41C39.4528 41 40 40.4627 40 39.8ZM32.6667 23C32.6667 24.9882 31.025 26.6 29 26.6C26.975 26.6 25.3333 24.9882 25.3333 23C25.3333 21.0118 26.975 19.4 29 19.4C31.025 19.4 32.6667 21.0118 32.6667 23Z" fill="#598BEC"/>
<path fill-rule="evenodd" clip-rule="evenodd" d="M29 29C25.625 29 22.8889 26.3137 22.8889 23C22.8889 19.6863 25.625 17 29 17C32.3751 17 35.1111 19.6863 35.1111 23C35.1111 26.3137 32.3751 29 29 29ZM40 39.8V37.4C40 34.0863 37.264 31.4 33.8889 31.4H24.1111C20.736 31.4 18 34.0863 18 37.4V39.8C18 40.4627 18.5472 41 19.2222 41C19.8972 41 20.4444 40.4627 20.4444 39.8V37.4C20.4444 35.4118 22.0861 33.8 24.1111 33.8H33.8889C35.9139 33.8 37.5556 35.4118 37.5556 37.4V39.8C37.5556 40.4627 38.1028 41 38.7778 41C39.4528 41 40 40.4627 40 39.8ZM32.6667 23C32.6667 24.9882 31.025 26.6 29 26.6C26.975 26.6 25.3333 24.9882 25.3333 23C25.3333 21.0118 26.975 19.4 29 19.4C31.025 19.4 32.6667 21.0118 32.6667 23Z" fill="#598BEC"/>
</svg>
