<svg width="59" height="58" viewBox="0 0 59 58" fill="none" xmlns="http://www.w3.org/2000/svg">
<ellipse cx="29.5" cy="29" rx="29.5" ry="29" fill="#F5F5F5"/>
<path fill-rule="evenodd" clip-rule="evenodd" d="M18.5023 32.5038H27.6807L26.6779 40.5257C26.5335 41.6817 27.9861 42.3123 28.7319 41.4173L40.3985 27.4173C41.0318 26.6574 40.4914 25.5038 39.5023 25.5038H30.3239L31.3266 17.4818C31.4711 16.3259 30.0185 15.6953 29.2727 16.5902L17.606 30.5902C16.9728 31.3501 17.5131 32.5038 18.5023 32.5038ZM29.0023 30.1705H20.9932L28.5177 21.141L27.8446 26.5257C27.7576 27.2221 28.3005 27.8371 29.0023 27.8371H37.0114L29.4868 36.8666L30.1599 31.4818C30.247 30.7855 29.704 30.1705 29.0023 30.1705Z" fill="#A3ABB1"/>
</svg>
