<svg width="59" height="58" viewBox="0 0 59 58" fill="none" xmlns="http://www.w3.org/2000/svg">
<ellipse cx="29.5" cy="29" rx="29.5" ry="29" fill="#F5F5F5"/>
<path d="M38 17.8H35C35 14.5955 32.315 12 29 12C25.685 12 23 14.5955 23 17.8H20C18.35 17.8 17 19.105 17 20.7V38.1C17 39.695 18.35 41 20 41H38C39.65 41 41 39.695 41 38.1V20.7C41 19.105 39.65 17.8 38 17.8ZM29 14.9C30.65 14.9 32 16.205 32 17.8H26C26 16.205 27.35 14.9 29 14.9ZM38 38.1H20V20.7H23V23.6C23 24.3975 23.675 25.05 24.5 25.05C25.325 25.05 26 24.3975 26 23.6V20.7H32V23.6C32 24.3975 32.675 25.05 33.5 25.05C34.325 25.05 35 24.3975 35 23.6V20.7H38V38.1Z" fill="#A3ABB1"/>
</svg>
