<svg width="30" height="32" viewBox="0 0 30 32" fill="none" xmlns="http://www.w3.org/2000/svg">
<path d="M6 22.05C5.20435 22.05 4.44129 22.3819 3.87868 22.9726C3.31607 23.5633 3 24.3646 3 25.2C3 26.0354 3.31607 26.8367 3.87868 27.4274C4.44129 28.0182 5.20435 28.35 6 28.35C6.79565 28.35 7.55871 28.0182 8.12132 27.4274C8.68393 26.8367 9 26.0354 9 25.2C9 24.3646 8.68393 23.5633 8.12132 22.9726C7.55871 22.3819 6.79565 22.05 6 22.05ZM0 25.2C0 23.5291 0.632141 21.9267 1.75736 20.7452C2.88258 19.5637 4.4087 18.9 6 18.9C7.5913 18.9 9.11742 19.5637 10.2426 20.7452C11.3679 21.9267 12 23.5291 12 25.2C12 26.8709 11.3679 28.4733 10.2426 29.6548C9.11742 30.8363 7.5913 31.5001 6 31.5001C4.4087 31.5001 2.88258 30.8363 1.75736 29.6548C0.632141 28.4733 0 26.8709 0 25.2ZM24 17.3249C23.2043 17.3249 22.4413 17.6568 21.8787 18.2476C21.3161 18.8383 21 19.6395 21 20.475C21 21.3104 21.3161 22.1116 21.8787 22.7024C22.4413 23.2931 23.2043 23.625 24 23.625C24.7956 23.625 25.5587 23.2931 26.1213 22.7024C26.6839 22.1116 27 21.3104 27 20.475C27 19.6395 26.6839 18.8383 26.1213 18.2476C25.5587 17.6568 24.7956 17.3249 24 17.3249ZM18 20.475C18 18.8041 18.6321 17.2017 19.7574 16.0202C20.8826 14.8387 22.4087 14.1749 24 14.1749C25.5913 14.1749 27.1174 14.8387 28.2426 16.0202C29.3679 17.2017 30 18.8041 30 20.475C30 22.1458 29.3679 23.7483 28.2426 24.9298C27.1174 26.1113 25.5913 26.775 24 26.775C22.4087 26.775 20.8826 26.1113 19.7574 24.9298C18.6321 23.7483 18 22.1458 18 20.475Z" fill="black"/>
<path d="M29.4225 0.333669C29.6022 0.480869 29.7477 0.669148 29.8477 0.884202C29.9478 1.09926 29.9999 1.33543 30 1.57478V20.4749C30 20.8926 29.842 21.2932 29.5607 21.5886C29.2794 21.884 28.8978 22.0499 28.5 22.0499C28.1022 22.0499 27.7206 21.884 27.4393 21.5886C27.158 21.2932 27 20.8926 27 20.4749V9.89084L12 13.8284V25.2C12 25.6177 11.842 26.0183 11.5607 26.3137C11.2794 26.609 10.8978 26.775 10.5 26.775C10.1022 26.775 9.72064 26.609 9.43934 26.3137C9.15804 26.0183 9 25.6177 9 25.2V6.29981C9.00001 5.9487 9.11175 5.60765 9.31748 5.33085C9.52321 5.05406 9.81113 4.85737 10.1355 4.77205L28.1355 0.0470174C28.3567 -0.0110331 28.5875 -0.0153887 28.8105 0.0342815C29.0335 0.0839517 29.2428 0.186341 29.4225 0.333669V0.333669ZM12 10.5823L27 6.64474V3.59237L12 7.5299V10.5823Z" fill="black"/>
</svg>
