<svg width="32" height="22" viewBox="0 0 32 22" fill="none" xmlns="http://www.w3.org/2000/svg">
<path d="M28.0429 4.32665C27.9226 3.92931 27.5806 3.62931 27.1895 3.53731C26.4976 3.37331 23.1251 2.99998 16.0001 2.99998C8.87508 2.99998 5.50575 3.37331 4.8075 3.53731C4.42117 3.62798 4.07917 3.92798 3.95725 4.32665C3.78467 4.89198 3.33342 7.26131 3.33342 11C3.33342 14.7386 3.78467 17.1066 3.95725 17.6746C4.07758 18.0706 4.41958 18.3706 4.80908 18.4613C5.50575 18.6266 8.87508 19 16.0001 19C23.1251 19 26.496 18.6266 27.1927 18.4626C27.579 18.372 27.921 18.072 28.0429 17.6733C28.2155 17.108 28.6668 14.7333 28.6668 11C28.6668 7.26665 28.2155 4.89331 28.0429 4.32665ZM31.1098 3.66398C31.8334 6.03998 31.8334 11 31.8334 11C31.8334 11 31.8334 15.96 31.1098 18.336C30.7077 19.6493 29.5312 20.6826 28.0413 21.032C25.3354 21.6666 16.0001 21.6666 16.0001 21.6666C16.0001 21.6666 6.6695 21.6666 3.95883 21.032C2.46258 20.6773 1.28775 19.6453 0.890332 18.336C0.166748 15.96 0.166748 11 0.166748 11C0.166748 11 0.166748 6.03998 0.890332 3.66398C1.2925 2.35065 2.46891 1.31731 3.95883 0.967979C6.6695 0.333313 16.0001 0.333313 16.0001 0.333313C16.0001 0.333313 25.3354 0.333313 28.0413 0.967979C29.5376 1.32265 30.7124 2.35465 31.1098 3.66398ZM12.8334 15.6666V6.33331L22.3334 11L12.8334 15.6666Z" fill="black"/>
</svg>
