<svg width="28" height="24" viewBox="0 0 28 24" fill="none" xmlns="http://www.w3.org/2000/svg">
<path d="M14 8C15.0609 8 16.0783 7.57857 16.8284 6.82843C17.5786 6.07828 18 5.06087 18 4C18 2.93913 17.5786 1.92172 16.8284 1.17157C16.0783 0.421427 15.0609 0 14 0C12.9391 0 11.9217 0.421427 11.1716 1.17157C10.4214 1.92172 10 2.93913 10 4C10 5.06087 10.4214 6.07828 11.1716 6.82843C11.9217 7.57857 12.9391 8 14 8ZM14 6C13.4696 6 12.9609 5.78929 12.5858 5.41421C12.2107 5.03914 12 4.53043 12 4C12 3.46957 12.2107 2.96086 12.5858 2.58579C12.9609 2.21071 13.4696 2 14 2C14.5304 2 15.0391 2.21071 15.4142 2.58579C15.7893 2.96086 16 3.46957 16 4C16 4.53043 15.7893 5.03914 15.4142 5.41421C15.0391 5.78929 14.5304 6 14 6ZM5 8C5.79565 8 6.55871 7.68393 7.12132 7.12132C7.68393 6.55871 8 5.79565 8 5C8 4.20435 7.68393 3.44129 7.12132 2.87868C6.55871 2.31607 5.79565 2 5 2C4.20435 2 3.44129 2.31607 2.87868 2.87868C2.31607 3.44129 2 4.20435 2 5C2 5.79565 2.31607 6.55871 2.87868 7.12132C3.44129 7.68393 4.20435 8 5 8ZM5 6C4.73478 6 4.48043 5.89464 4.29289 5.70711C4.10536 5.51957 4 5.26522 4 5C4 4.73478 4.10536 4.48043 4.29289 4.29289C4.48043 4.10536 4.73478 4 5 4C5.26522 4 5.51957 4.10536 5.70711 4.29289C5.89464 4.48043 6 4.73478 6 5C6 5.26522 5.89464 5.51957 5.70711 5.70711C5.51957 5.89464 5.26522 6 5 6ZM26 5C26 5.39397 25.9224 5.78407 25.7716 6.14805C25.6209 6.51203 25.3999 6.84274 25.1213 7.12132C24.8427 7.3999 24.512 7.62087 24.1481 7.77164C23.7841 7.9224 23.394 8 23 8C22.606 8 22.2159 7.9224 21.8519 7.77164C21.488 7.62087 21.1573 7.3999 20.8787 7.12132C20.6001 6.84274 20.3791 6.51203 20.2284 6.14805C20.0776 5.78407 20 5.39397 20 5C20 4.20435 20.3161 3.44129 20.8787 2.87868C21.4413 2.31607 22.2044 2 23 2C23.7956 2 24.5587 2.31607 25.1213 2.87868C25.6839 3.44129 26 4.20435 26 5ZM24 5C24 4.73478 23.8946 4.48043 23.7071 4.29289C23.5196 4.10536 23.2652 4 23 4C22.7348 4 22.4804 4.10536 22.2929 4.29289C22.1054 4.48043 22 4.73478 22 5C22 5.26522 22.1054 5.51957 22.2929 5.70711C22.4804 5.89464 22.7348 6 23 6C23.2652 6 23.5196 5.89464 23.7071 5.70711C23.8946 5.51957 24 5.26522 24 5ZM8.972 10.252C9.252 10.092 9.577 10 9.923 10H18.077C18.4601 9.99929 18.8346 10.1136 19.152 10.328C19.664 10.674 20 11.259 20 11.923V18C20 19.5913 19.3679 21.1174 18.2426 22.2426C17.1174 23.3679 15.5913 24 14 24C12.4087 24 10.8826 23.3679 9.75736 22.2426C8.63214 21.1174 8 19.5913 8 18V11.923C8 11.207 8.391 10.583 8.972 10.252ZM10 18C10 19.0609 10.4214 20.0783 11.1716 20.8284C11.9217 21.5786 12.9391 22 14 22C15.0609 22 16.0783 21.5786 16.8284 20.8284C17.5786 20.0783 18 19.0609 18 18V12H10V18ZM6.5 11.923C6.5 11.21 6.718 10.548 7.09 10H2C1.46957 10 0.960859 10.2107 0.585787 10.5858C0.210714 10.9609 2.24393e-07 11.4696 2.24393e-07 12V17C-0.000257712 17.8611 0.22186 18.7076 0.644838 19.4576C1.06782 20.2076 1.67732 20.8357 2.41431 21.281C3.15129 21.7263 3.99079 21.9737 4.85148 21.9993C5.71216 22.0249 6.56487 21.8277 7.327 21.427C7.01467 20.8203 6.7872 20.1736 6.651 19.505C6.19873 19.8031 5.67418 19.9732 5.13304 19.9972C4.59189 20.0212 4.05434 19.8983 3.57743 19.6414C3.10052 19.3846 2.70206 19.0034 2.42433 18.5383C2.1466 18.0733 1.99997 17.5417 2 17V12H6.5V11.923ZM23 22C22.16 22 21.368 21.793 20.673 21.427C20.9853 20.8203 21.2128 20.1736 21.349 19.505C21.8013 19.8031 22.3258 19.9732 22.867 19.9972C23.4081 20.0212 23.9457 19.8983 24.4226 19.6414C24.8995 19.3846 25.2979 19.0034 25.5757 18.5383C25.8534 18.0733 26 17.5417 26 17V12H21.5V11.923C21.5 11.21 21.282 10.548 20.91 10H26C26.5304 10 27.0391 10.2107 27.4142 10.5858C27.7893 10.9609 28 11.4696 28 12V17C28 18.3261 27.4732 19.5979 26.5355 20.5355C25.5979 21.4732 24.3261 22 23 22Z" fill="black"/>
</svg>
