<svg width="30" height="7" viewBox="0 0 30 7" fill="none" xmlns="http://www.w3.org/2000/svg">
<path fill-rule="evenodd" clip-rule="evenodd" d="M3.33333 7C5.17428 7 6.66667 5.433 6.66667 3.5C6.66667 1.567 5.17428 0 3.33333 0C1.49238 0 0 1.567 0 3.5C0 5.433 1.49238 7 3.33333 7ZM15 7C16.841 7 18.3333 5.433 18.3333 3.5C18.3333 1.567 16.841 0 15 0C13.1591 0 11.6667 1.567 11.6667 3.5C11.6667 5.433 13.1591 7 15 7ZM30 3.5C30 5.433 28.5076 7 26.6667 7C24.8257 7 23.3333 5.433 23.3333 3.5C23.3333 1.567 24.8257 0 26.6667 0C28.5076 0 30 1.567 30 3.5Z" fill="#1A66FF"/>
</svg>
