<svg width="28" height="26" viewBox="0 0 28 26" fill="none" xmlns="http://www.w3.org/2000/svg">
<path fill-rule="evenodd" clip-rule="evenodd" d="M23.0212 19.24C22.904 19.2426 22.7869 19.2439 22.6698 19.2439C14.0623 19.2439 7.0843 12.8236 7.0843 4.90419C7.0843 4.79599 7.0843 4.68779 7.08855 4.5809C5.84443 5.49738 4.82435 6.64495 4.0949 7.94872C3.36545 9.25248 2.94303 10.6831 2.85521 12.1473C2.76739 13.6114 3.01614 15.0761 3.58522 16.4458C4.15431 17.8155 5.03094 19.0594 6.1579 20.0963C7.28485 21.1332 8.6368 21.9397 10.1255 22.4633C11.6142 22.9869 13.2061 23.2158 14.7975 23.135C16.3888 23.0542 17.9437 22.6655 19.3608 21.9944C20.7778 21.3232 22.0251 20.3847 23.0212 19.24ZM24.7469 16.4816C22.4619 16.8293 20.1171 16.5979 17.9643 15.8123C15.8114 15.0266 13.9317 13.7163 12.5271 12.022C11.1224 10.3277 10.2458 8.31347 9.99135 6.19545C9.73688 4.07744 10.1142 1.93565 11.0827 0C7.93786 0.645454 5.12612 2.25795 3.11133 4.57146C1.09654 6.88498 -0.000923343 9.76129 5.82896e-07 12.7259C5.82896e-07 19.9257 6.34329 25.762 14.1686 25.762C17.3907 25.7626 20.5167 24.7528 23.0312 22.8991C25.5456 21.0454 27.2982 18.4585 28 15.5651C26.9799 15.9979 25.8889 16.3095 24.7469 16.4816Z" fill="#1A66FF"/>
</svg>
